<?xml version="1.0" encoding="UTF-8"?>
<svg xmlns="http://www.w3.org/2000/svg"
     width="1024" height="1024"
     viewBox="0 0 1024 1024">
  
  <g>
    <circle cx="891.3" cy="519.3" r="6.7" fill="#ff8a3d"/><rect x="912.4" y="514.6" width="10.1" height="10.1" rx="2.5" fill="#ff3f7f"/><rect x="893.2" y="532.9" width="12.4" height="12.4" rx="3.1" fill="#a55bff"/><circle cx="846.8" cy="532.4" r="11.1" fill="#2d9cff"/><rect x="850.0" y="550.9" width="17.1" height="17.1" rx="4.3" fill="#2dd4ff"/><rect x="879.1" y="561.2" width="22.2" height="22.2" rx="5.5" fill="#ff8a3d"/><circle cx="859.7" cy="575.2" r="8.9" fill="#ff3f7f"/><rect x="837.8" y="576.4" width="10.5" height="10.5" rx="2.6" fill="#a55bff"/><rect x="867.5" y="599.4" width="12.0" height="12.0" rx="3.0" fill="#2d9cff"/><circle cx="857.7" cy="611.4" r="5.2" fill="#2dd4ff"/><rect x="903.5" y="620.0" width="16.0" height="16.0" rx="4.0" fill="#ff8a3d"/><rect x="894.6" y="633.9" width="14.0" height="14.0" rx="3.5" fill="#ff3f7f"/><circle cx="904.3" cy="657.3" r="9.8" fill="#a55bff"/><rect x="868.8" y="646.2" width="20.4" height="20.4" rx="5.1" fill="#2d9cff"/><rect x="852.2" y="663.4" width="15.1" height="15.1" rx="3.8" fill="#2dd4ff"/><circle cx="879.9" cy="684.5" r="11.7" fill="#ff8a3d"/><rect x="862.8" y="680.6" width="10.6" height="10.6" rx="2.7" fill="#ff3f7f"/><rect x="851.6" y="676.0" width="22.8" height="22.8" rx="5.7" fill="#a55bff"/><circle cx="827.2" cy="683.7" r="9.6" fill="#2d9cff"/><rect x="827.3" y="711.5" width="15.1" height="15.1" rx="3.8" fill="#2dd4ff"/><rect x="846.3" y="726.4" width="21.9" height="21.9" rx="5.5" fill="#ff8a3d"/><circle cx="809.4" cy="714.6" r="7.2" fill="#ff3f7f"/><rect x="790.4" y="712.0" width="17.5" height="17.5" rx="4.4" fill="#a55bff"/><rect x="768.9" y="698.3" width="20.0" height="20.0" rx="5.0" fill="#2d9cff"/><circle cx="831.7" cy="775.7" r="10.5" fill="#2dd4ff"/><rect x="769.2" y="729.5" width="20.2" height="20.2" rx="5.0" fill="#ff8a3d"/><rect x="776.3" y="753.7" width="13.6" height="13.6" rx="3.4" fill="#ff3f7f"/><circle cx="799.8" cy="800.2" r="11.2" fill="#a55bff"/><rect x="782.5" y="786.3" width="17.9" height="17.9" rx="4.5" fill="#2d9cff"/><rect x="758.0" y="765.1" width="19.0" height="19.0" rx="4.8" fill="#2dd4ff"/><circle cx="736.9" cy="759.6" r="7.7" fill="#ff8a3d"/><rect x="733.8" y="782.1" width="10.1" height="10.1" rx="2.5" fill="#ff3f7f"/><rect x="735.7" y="815.2" width="10.9" height="10.9" rx="2.7" fill="#a55bff"/><circle cx="744.5" cy="841.3" r="8.8" fill="#2d9cff"/><rect x="737.6" y="854.9" width="10.2" height="10.2" rx="2.6" fill="#2dd4ff"/><rect x="716.7" y="816.4" width="12.2" height="12.2" rx="3.1" fill="#ff8a3d"/><circle cx="704.5" cy="816.8" r="9.5" fill="#ff3f7f"/><rect x="696.1" y="844.4" width="12.8" height="12.8" rx="3.2" fill="#a55bff"/><rect x="671.3" y="838.9" width="19.8" height="19.8" rx="4.9" fill="#2d9cff"/><circle cx="673.0" cy="827.3" r="7.2" fill="#2dd4ff"/><rect x="677.8" y="870.0" width="23.6" height="23.6" rx="5.9" fill="#ff8a3d"/><rect x="637.4" y="835.1" width="14.6" height="14.6" rx="3.7" fill="#ff3f7f"/><circle cx="643.9" cy="875.2" r="9.4" fill="#a55bff"/><rect x="626.8" y="866.3" width="13.4" height="13.4" rx="3.4" fill="#2d9cff"/><rect x="614.1" y="842.1" width="16.9" height="16.9" rx="4.2" fill="#2dd4ff"/><circle cx="607.7" cy="866.8" r="5.8" fill="#ff8a3d"/><rect x="600.0" y="858.4" width="11.6" height="11.6" rx="2.9" fill="#ff3f7f"/><rect x="592.8" y="876.2" width="11.8" height="11.8" rx="2.9" fill="#a55bff"/><circle cx="587.7" cy="879.3" r="7.8" fill="#2d9cff"/><rect x="568.0" y="877.7" width="13.2" height="13.2" rx="3.3" fill="#2dd4ff"/><rect x="562.2" y="863.7" width="13.5" height="13.5" rx="3.4" fill="#ff8a3d"/><circle cx="551.5" cy="923.8" r="11.9" fill="#ff3f7f"/><rect x="540.1" y="854.5" width="21.3" height="21.3" rx="5.3" fill="#a55bff"/><rect x="529.2" y="916.6" width="18.1" height="18.1" rx="4.5" fill="#2d9cff"/><circle cx="532.4" cy="904.2" r="9.5" fill="#2dd4ff"/><rect x="505.9" y="874.9" width="18.9" height="18.9" rx="4.7" fill="#ff8a3d"/><rect x="495.1" y="849.1" width="11.8" height="11.8" rx="3.0" fill="#ff3f7f"/><circle cx="497.0" cy="907.6" r="5.6" fill="#a55bff"/><rect x="481.0" y="922.2" width="10.5" height="10.5" rx="2.6" fill="#2d9cff"/><rect x="460.5" y="880.1" width="16.6" height="16.6" rx="4.1" fill="#2dd4ff"/><circle cx="448.4" cy="884.0" r="9.0" fill="#ff8a3d"/><rect x="438.9" y="874.9" width="12.7" height="12.7" rx="3.2" fill="#ff3f7f"/><rect x="432.5" y="895.2" width="15.2" height="15.2" rx="3.8" fill="#a55bff"/><circle cx="426.1" cy="838.2" r="7.4" fill="#2d9cff"/><rect x="406.2" y="913.0" width="14.1" height="14.1" rx="3.5" fill="#2dd4ff"/><rect x="408.1" y="829.9" width="10.1" height="10.1" rx="2.5" fill="#ff8a3d"/><circle cx="395.4" cy="847.8" r="7.6" fill="#ff3f7f"/><rect x="368.5" y="879.6" width="10.6" height="10.6" rx="2.6" fill="#a55bff"/><rect x="356.0" y="897.0" width="15.3" height="15.3" rx="3.8" fill="#2d9cff"/><circle cx="374.5" cy="836.5" r="8.0" fill="#2dd4ff"/><rect x="357.1" y="825.0" width="12.4" height="12.4" rx="3.1" fill="#ff8a3d"/><rect x="325.4" y="860.2" width="21.6" height="21.6" rx="5.4" fill="#ff3f7f"/><circle cx="314.3" cy="876.0" r="6.8" fill="#a55bff"/><rect x="344.0" y="803.5" width="16.1" height="16.1" rx="4.0" fill="#2d9cff"/><rect x="316.3" y="805.3" width="22.9" height="22.9" rx="5.7" fill="#2dd4ff"/><circle cx="296.5" cy="868.2" r="7.2" fill="#ff8a3d"/><rect x="289.8" y="834.0" width="17.9" height="17.9" rx="4.5" fill="#ff3f7f"/><rect x="292.5" y="782.1" width="21.2" height="21.2" rx="5.3" fill="#a55bff"/><circle cx="268.7" cy="820.9" r="11.4" fill="#2d9cff"/><rect x="255.2" y="825.0" width="17.5" height="17.5" rx="4.4" fill="#2dd4ff"/><rect x="264.8" y="774.0" width="14.8" height="14.8" rx="3.7" fill="#ff8a3d"/><circle cx="275.1" cy="782.8" r="5.6" fill="#ff3f7f"/><rect x="238.0" y="794.8" width="11.9" height="11.9" rx="3.0" fill="#a55bff"/><rect x="253.1" y="743.1" width="21.0" height="21.0" rx="5.3" fill="#2d9cff"/><circle cx="219.2" cy="795.9" r="11.7" fill="#2dd4ff"/><rect x="203.5" y="747.9" width="20.6" height="20.6" rx="5.1" fill="#ff8a3d"/><rect x="232.0" y="723.4" width="14.5" height="14.5" rx="3.6" fill="#ff3f7f"/><circle cx="234.2" cy="737.0" r="6.3" fill="#a55bff"/><rect x="191.0" y="726.9" width="10.2" height="10.2" rx="2.6" fill="#2d9cff"/><rect x="194.6" y="715.4" width="20.8" height="20.8" rx="5.2" fill="#2dd4ff"/><circle cx="205.3" cy="708.3" r="11.1" fill="#ff8a3d"/><rect x="200.1" y="687.9" width="14.2" height="14.2" rx="3.6" fill="#ff3f7f"/><rect x="150.3" y="703.6" width="23.0" height="23.0" rx="5.8" fill="#a55bff"/><circle cx="198.0" cy="667.4" r="5.1" fill="#2d9cff"/><rect x="179.7" y="663.7" width="20.2" height="20.2" rx="5.1" fill="#2dd4ff"/><rect x="137.2" y="672.7" width="21.3" height="21.3" rx="5.3" fill="#ff8a3d"/><circle cx="199.1" cy="636.7" r="8.6" fill="#ff3f7f"/><rect x="174.4" y="629.8" width="17.2" height="17.2" rx="4.3" fill="#a55bff"/><rect x="123.3" y="633.2" width="12.2" height="12.2" rx="3.1" fill="#2d9cff"/><circle cx="155.6" cy="632.3" r="9.3" fill="#2dd4ff"/><rect x="159.4" y="618.1" width="13.3" height="13.3" rx="3.3" fill="#ff8a3d"/><rect x="125.5" y="602.7" width="20.6" height="20.6" rx="5.1" fill="#ff3f7f"/><circle cx="175.9" cy="585.4" r="5.2" fill="#a55bff"/><rect x="157.7" y="568.9" width="23.3" height="23.3" rx="5.8" fill="#2d9cff"/><rect x="151.7" y="573.9" width="14.9" height="14.9" rx="3.7" fill="#2dd4ff"/><circle cx="111.3" cy="576.5" r="10.0" fill="#ff8a3d"/><rect x="87.9" y="542.8" width="13.3" height="13.3" rx="3.3" fill="#ff3f7f"/><rect x="91.3" y="526.8" width="19.1" height="19.1" rx="4.8" fill="#a55bff"/><circle cx="94.1" cy="528.8" r="11.4" fill="#2d9cff"/><rect x="103.4" y="507.4" width="19.3" height="19.3" rx="4.8" fill="#2dd4ff"/><rect x="92.1" y="502.2" width="18.5" height="18.5" rx="4.6" fill="#ff8a3d"/><circle cx="116.4" cy="492.0" r="8.0" fill="#ff3f7f"/><rect x="169.4" y="480.7" width="19.2" height="19.2" rx="4.8" fill="#a55bff"/><rect x="160.2" y="484.7" width="12.2" height="12.2" rx="3.0" fill="#2d9cff"/><circle cx="149.8" cy="478.8" r="5.3" fill="#2dd4ff"/><rect x="88.0" y="438.1" width="22.7" height="22.7" rx="5.7" fill="#ff8a3d"/><rect x="92.3" y="440.7" width="11.5" height="11.5" rx="2.9" fill="#ff3f7f"/><circle cx="166.5" cy="433.3" r="7.1" fill="#a55bff"/><rect x="129.9" y="414.5" width="15.7" height="15.7" rx="3.9" fill="#2d9cff"/><rect x="173.6" y="413.4" width="10.4" height="10.4" rx="2.6" fill="#2dd4ff"/><circle cx="113.0" cy="390.7" r="6.7" fill="#ff8a3d"/><rect x="172.6" y="404.6" width="17.0" height="17.0" rx="4.3" fill="#ff3f7f"/><rect x="131.1" y="382.0" width="13.0" height="13.0" rx="3.3" fill="#a55bff"/><circle cx="159.9" cy="383.2" r="10.2" fill="#2d9cff"/><rect x="137.3" y="342.7" width="10.3" height="10.3" rx="2.6" fill="#2dd4ff"/><rect x="167.4" y="348.3" width="13.4" height="13.4" rx="3.3" fill="#ff8a3d"/><circle cx="156.2" cy="343.2" r="9.6" fill="#ff3f7f"/><rect x="150.5" y="309.6" width="18.3" height="18.3" rx="4.6" fill="#a55bff"/><rect x="199.6" y="336.5" width="10.7" height="10.7" rx="2.7" fill="#2d9cff"/><circle cx="192.9" cy="324.4" r="5.3" fill="#2dd4ff"/><rect x="160.7" y="286.5" width="23.4" height="23.4" rx="5.9" fill="#ff8a3d"/><rect x="202.4" y="291.6" width="16.3" height="16.3" rx="4.1" fill="#ff3f7f"/><circle cx="208.3" cy="290.4" r="7.5" fill="#a55bff"/><rect x="236.2" y="302.4" width="10.4" height="10.4" rx="2.6" fill="#2d9cff"/><rect x="233.2" y="282.3" width="12.0" height="12.0" rx="3.0" fill="#2dd4ff"/><circle cx="213.9" cy="249.0" r="9.0" fill="#ff8a3d"/><rect x="214.1" y="244.6" width="23.7" height="23.7" rx="5.9" fill="#ff3f7f"/><rect x="221.1" y="229.2" width="11.4" height="11.4" rx="2.9" fill="#a55bff"/><circle cx="248.1" cy="225.7" r="5.7" fill="#2d9cff"/><rect x="244.7" y="232.2" width="20.3" height="20.3" rx="5.1" fill="#2dd4ff"/><rect x="281.5" y="261.2" width="10.3" height="10.3" rx="2.6" fill="#ff8a3d"/><circle cx="291.0" cy="244.7" r="9.9" fill="#ff3f7f"/><rect x="246.2" y="182.2" width="20.5" height="20.5" rx="5.1" fill="#a55bff"/><rect x="269.8" y="189.4" width="22.4" height="22.4" rx="5.6" fill="#2d9cff"/><circle cx="298.1" cy="210.7" r="11.4" fill="#2dd4ff"/><rect x="287.7" y="154.7" width="16.4" height="16.4" rx="4.1" fill="#ff8a3d"/><rect x="319.6" y="197.5" width="21.6" height="21.6" rx="5.4" fill="#ff3f7f"/><circle cx="341.4" cy="200.7" r="5.1" fill="#a55bff"/><rect x="316.2" y="169.4" width="10.5" height="10.5" rx="2.6" fill="#2d9cff"/><rect x="346.0" y="168.3" width="16.3" height="16.3" rx="4.1" fill="#2dd4ff"/><circle cx="356.4" cy="160.4" r="10.1" fill="#ff8a3d"/><rect x="350.7" y="117.9" width="17.2" height="17.2" rx="4.3" fill="#ff3f7f"/><rect x="363.7" y="145.2" width="16.5" height="16.5" rx="4.1" fill="#a55bff"/><circle cx="376.8" cy="139.4" r="6.5" fill="#2d9cff"/><rect x="371.2" y="135.1" width="19.2" height="19.2" rx="4.8" fill="#2dd4ff"/><rect x="413.4" y="165.7" width="14.2" height="14.2" rx="3.6" fill="#ff8a3d"/><circle cx="407.9" cy="153.3" r="7.7" fill="#ff3f7f"/><rect x="400.9" y="100.3" width="20.1" height="20.1" rx="5.0" fill="#a55bff"/><rect x="419.5" y="142.2" width="18.2" height="18.2" rx="4.5" fill="#2d9cff"/><circle cx="442.7" cy="108.9" r="7.0" fill="#2dd4ff"/><rect x="433.4" y="102.3" width="23.0" height="23.0" rx="5.8" fill="#ff8a3d"/><rect x="459.2" y="142.6" width="20.8" height="20.8" rx="5.2" fill="#ff3f7f"/><circle cx="488.9" cy="102.0" r="9.8" fill="#a55bff"/><rect x="476.9" y="162.1" width="18.8" height="18.8" rx="4.7" fill="#2d9cff"/><rect x="505.0" y="140.1" width="11.7" height="11.7" rx="2.9" fill="#2dd4ff"/><circle cx="508.1" cy="141.5" r="9.6" fill="#ff8a3d"/><rect x="512.1" y="163.7" width="23.6" height="23.6" rx="5.9" fill="#ff3f7f"/><rect x="524.1" y="103.6" width="19.2" height="19.2" rx="4.8" fill="#a55bff"/><circle cx="540.6" cy="167.8" r="9.8" fill="#2d9cff"/><rect x="540.1" y="148.0" width="17.8" height="17.8" rx="4.4" fill="#2dd4ff"/><rect x="558.2" y="172.0" width="16.9" height="16.9" rx="4.2" fill="#ff8a3d"/><circle cx="581.7" cy="138.2" r="9.9" fill="#ff3f7f"/><rect x="573.4" y="179.8" width="17.9" height="17.9" rx="4.5" fill="#a55bff"/><rect x="604.7" y="99.9" width="13.7" height="13.7" rx="3.4" fill="#2d9cff"/><circle cx="607.4" cy="113.0" r="6.1" fill="#2dd4ff"/><rect x="612.0" y="142.0" width="14.1" height="14.1" rx="3.5" fill="#ff8a3d"/><rect x="631.5" y="131.6" width="13.5" height="13.5" rx="3.4" fill="#ff3f7f"/><circle cx="621.0" cy="175.1" r="6.2" fill="#a55bff"/><rect x="622.6" y="177.4" width="15.0" height="15.0" rx="3.7" fill="#2d9cff"/><rect x="635.0" y="162.3" width="18.6" height="18.6" rx="4.7" fill="#2dd4ff"/><circle cx="680.7" cy="164.1" r="5.8" fill="#ff8a3d"/><rect x="650.4" y="204.4" width="14.6" height="14.6" rx="3.7" fill="#ff3f7f"/><rect x="680.5" y="181.6" width="15.9" height="15.9" rx="4.0" fill="#a55bff"/><circle cx="677.9" cy="214.5" r="7.2" fill="#2d9cff"/><rect x="681.3" y="181.8" width="21.4" height="21.4" rx="5.3" fill="#2dd4ff"/><rect x="728.1" y="166.2" width="14.6" height="14.6" rx="3.6" fill="#ff8a3d"/><circle cx="695.1" cy="234.7" r="6.5" fill="#ff3f7f"/><rect x="708.0" y="216.9" width="14.9" height="14.9" rx="3.7" fill="#a55bff"/><rect x="765.5" y="175.8" width="12.6" height="12.6" rx="3.2" fill="#2d9cff"/><circle cx="733.1" cy="234.1" r="7.2" fill="#2dd4ff"/><rect x="763.9" y="186.5" width="18.5" height="18.5" rx="4.6" fill="#ff8a3d"/><rect x="766.8" y="231.5" width="18.7" height="18.7" rx="4.7" fill="#ff3f7f"/><circle cx="772.8" cy="254.2" r="7.3" fill="#a55bff"/><rect x="803.1" y="225.9" width="15.5" height="15.5" rx="3.9" fill="#2d9cff"/><rect x="807.2" y="230.6" width="20.1" height="20.1" rx="5.0" fill="#2dd4ff"/><circle cx="803.3" cy="269.0" r="5.3" fill="#ff8a3d"/><rect x="763.3" y="298.5" width="16.0" height="16.0" rx="4.0" fill="#ff3f7f"/><rect x="794.0" y="280.4" width="14.2" height="14.2" rx="3.6" fill="#a55bff"/><circle cx="835.7" cy="290.4" r="11.6" fill="#2d9cff"/><rect x="820.4" y="292.2" width="19.5" height="19.5" rx="4.9" fill="#2dd4ff"/><rect x="832.8" y="293.4" width="23.3" height="23.3" rx="5.8" fill="#ff8a3d"/><circle cx="814.9" cy="337.6" r="11.3" fill="#ff3f7f"/><rect x="824.9" y="313.5" width="12.2" height="12.2" rx="3.0" fill="#a55bff"/><rect x="821.0" y="334.3" width="21.6" height="21.6" rx="5.4" fill="#2d9cff"/><circle cx="847.2" cy="334.9" r="10.6" fill="#2dd4ff"/><rect x="827.4" y="352.4" width="15.4" height="15.4" rx="3.9" fill="#ff8a3d"/><rect x="891.7" y="344.1" width="15.1" height="15.1" rx="3.8" fill="#ff3f7f"/><circle cx="858.5" cy="376.2" r="9.3" fill="#a55bff"/><rect x="820.8" y="397.9" width="10.4" height="10.4" rx="2.6" fill="#2d9cff"/><rect x="882.6" y="384.8" width="13.3" height="13.3" rx="3.3" fill="#2dd4ff"/><circle cx="836.2" cy="413.2" r="10.7" fill="#ff8a3d"/><rect x="906.5" y="393.8" width="21.5" height="21.5" rx="5.4" fill="#ff3f7f"/><rect x="857.9" y="429.5" width="14.4" height="14.4" rx="3.6" fill="#a55bff"/><circle cx="864.3" cy="451.2" r="12.0" fill="#2d9cff"/><rect x="834.0" y="438.8" width="23.0" height="23.0" rx="5.7" fill="#2dd4ff"/><rect x="855.5" y="445.2" width="20.1" height="20.1" rx="5.0" fill="#ff8a3d"/><circle cx="849.9" cy="465.2" r="5.9" fill="#ff3f7f"/><rect x="859.1" y="463.1" width="20.7" height="20.7" rx="5.2" fill="#a55bff"/><rect x="902.1" y="485.4" width="21.4" height="21.4" rx="5.4" fill="#2d9cff"/><circle cx="929.4" cy="500.9" r="9.4" fill="#2dd4ff"/>
  </g>
  <text x="140" y="527" font-family="sans-serif" font-size="80" fill="#ffffff" letter-spacing="5">
    cisco
  </text>
  <text x="392" y="527" font-family="sans-serif" font-size="120" fill="#ffffff">
    AI Defense
  </text>
</svg>
