<svg width="80" height="80" xmlns="http://www.w3.org/2000/svg" xmlns:xlink="http://www.w3.org/1999/xlink" xml:space="preserve" overflow="hidden"><g transform="translate(-600 -320)"><g><path d="M625.25 354 625.25 366C625.25 366.414 625.586 366.75 626 366.75L654 366.75C654.414 366.75 654.75 366.414 654.75 366L654.75 354C654.75 353.586 654.414 353.25 654 353.25L626 353.25C625.586 353.25 625.25 353.586 625.25 354ZM626.75 354.75 653.25 354.75 653.25 365.25 626.75 365.25 626.75 354.75Z" fill="#FFFFFF" fill-rule="nonzero" fill-opacity="1"/><path d="M638 359.25 650 359.25 650 360.75 638 360.75Z" fill="#FFFFFF" fill-rule="nonzero" fill-opacity="1"/><path d="M647.476 341.377 648.313 342.623C655.413 337.849 658.081 339.142 659.47 340.53 660.852 341.914 662.148 344.565 657.437 351.599L658.683 352.434C662.736 346.381 663.323 342.262 660.53 339.47 657.767 336.706 653.497 337.33 647.476 341.377Z" fill="#FFFFFF" fill-rule="nonzero" fill-opacity="1"/><path d="M621.301 367.582C617.259 373.624 616.677 377.738 619.47 380.53 620.62 381.68 621.993 382.258 623.633 382.258 625.977 382.258 628.863 381.077 632.417 378.7L631.583 377.453C624.565 382.149 621.914 380.853 620.53 379.47 619.146 378.086 617.851 375.436 622.547 368.417L621.301 367.582Z" fill="#FFFFFF" fill-rule="nonzero" fill-opacity="1"/><path d="M619.47 339.47C616.672 342.267 617.278 346.41 621.378 352.51L622.622 351.673C617.854 344.578 619.145 341.915 620.53 340.53 621.917 339.144 624.574 337.845 631.6 342.549L632.434 341.303C626.471 337.311 622.229 336.709 619.47 339.47Z" fill="#FFFFFF" fill-rule="nonzero" fill-opacity="1"/><path d="M648.417 377.439 647.583 378.685C651.144 381.069 654.034 382.252 656.379 382.251 658.015 382.251 659.385 381.676 660.53 380.53 663.29 377.771 662.691 373.531 658.699 367.568L657.453 368.402C662.156 375.428 660.857 378.083 659.47 379.47 658.09 380.849 655.44 382.14 648.417 377.439Z" fill="#FFFFFF" fill-rule="nonzero" fill-opacity="1"/><path d="M658.054 334.03C658.117 334.03 658.174 333.99 658.195 333.931L658.662 332.632 660.911 332.632 661.378 333.931C661.399 333.99 661.456 334.03 661.52 334.03L662.63 334.03C662.68 334.03 662.726 334.005 662.754 333.964 662.781 333.924 662.788 333.872 662.77 333.826L660.533 328.076C660.511 328.019 660.455 327.98 660.393 327.98L659.244 327.98C659.183 327.98 659.127 328.019 659.104 328.076L656.868 333.826C656.85 333.872 656.856 333.924 656.884 333.964 656.912 334.005 656.958 334.03 657.008 334.03L658.054 334.03ZM659.801 329.5 660.54 331.582 659.043 331.582 659.801 329.5Z" fill="#FFFFFF" fill-rule="nonzero" fill-opacity="1"/><path d="M665.688 328.943C666.017 328.943 666.296 329.025 666.518 329.186 666.773 329.375 666.927 329.646 666.985 330.015 666.997 330.087 667.06 330.141 667.134 330.141L668.164 330.141C668.207 330.141 668.247 330.123 668.275 330.091 668.305 330.06 668.317 330.017 668.313 329.975 668.25 329.396 668.002 328.91 667.578 328.53 667.083 328.086 666.447 327.861 665.688 327.861 664.88 327.861 664.217 328.1 663.717 328.572 663.124 329.126 662.822 329.942 662.822 330.997 662.822 331.923 663.052 332.672 663.504 333.224 664.005 333.838 664.719 334.15 665.624 334.15 666.336 334.15 666.943 333.957 667.427 333.574 667.969 333.146 668.275 332.56 668.337 331.832 668.341 331.79 668.326 331.75 668.298 331.718 668.27 331.688 668.229 331.67 668.188 331.67L667.149 331.67C667.07 331.67 667.005 331.731 667 331.81 666.976 332.17 666.857 332.463 666.644 332.681 666.394 332.935 666.065 333.06 665.641 333.06 665.229 333.06 664.908 332.922 664.658 332.639 664.339 332.28 664.178 331.728 664.178 330.997 664.178 330.351 664.305 329.846 664.558 329.494 664.817 329.124 665.188 328.943 665.688 328.943Z" fill="#FFFFFF" fill-rule="nonzero" fill-opacity="1"/><path d="M670.064 327.98C670.148 327.98 670.215 328.048 670.215 328.131L670.215 333.879C670.215 333.962 670.148 334.03 670.064 334.03L669.042 334.03C668.959 334.03 668.892 333.962 668.892 333.879L668.892 328.131C668.892 328.048 668.959 327.98 669.042 327.98Z" fill="#FFFFFF" fill-rule="nonzero" fill-opacity="1"/><path d="M640.75 344 640.75 331.81 643.47 334.53 644.53 333.47 640.53 329.47C640.237 329.177 639.763 329.177 639.47 329.47L635.47 333.47 636.53 334.53 639.25 331.81 639.25 344 640.75 344Z" fill="#FFFFFF" fill-rule="nonzero" fill-opacity="1"/><path d="M639.25 376 639.25 388.19 636.53 385.47 635.47 386.53 639.47 390.53C639.616 390.677 639.808 390.75 640 390.75 640.192 390.75 640.384 390.677 640.53 390.53L644.53 386.53 643.47 385.47 640.75 388.19 640.75 376 639.25 376Z" fill="#FFFFFF" fill-rule="nonzero" fill-opacity="1"/><path d="M613.47 364.53 614.53 363.47 611.81 360.75 622 360.75 622 359.25 611.81 359.25 614.53 356.53 613.47 355.47 609.47 359.47C609.177 359.763 609.177 360.237 609.47 360.53L613.47 364.53Z" fill="#FFFFFF" fill-rule="nonzero" fill-opacity="1"/><path d="M670.53 359.47 666.53 355.47 665.47 356.53 668.19 359.25 658 359.25 658 360.75 668.19 360.75 665.47 363.47 666.53 364.53 670.53 360.53C670.823 360.237 670.823 359.763 670.53 359.47Z" fill="#FFFFFF" fill-rule="nonzero" fill-opacity="1"/><path d="M631 360C631 360.552 630.552 361 630 361 629.448 361 629 360.552 629 360 629 359.448 629.448 359 630 359 630.552 359 631 359.448 631 360Z" fill="#FFFFFF" fill-rule="nonzero" fill-opacity="1"/><path d="M635 360C635 360.552 634.552 361 634 361 633.448 361 633 360.552 633 360 633 359.448 633.448 359 634 359 634.552 359 635 359.448 635 360Z" fill="#FFFFFF" fill-rule="nonzero" fill-opacity="1"/></g></g></svg>