<svg width="192" height="215" xmlns="http://www.w3.org/2000/svg" xmlns:xlink="http://www.w3.org/1999/xlink" xml:space="preserve" overflow="hidden"><defs><linearGradient x1="1719.5" y1="1813" x2="1719.5" y2="1819" gradientUnits="userSpaceOnUse" spreadMethod="reflect" id="fill0"><stop offset="0" stop-color="#F2FCFF" stop-opacity="1"/><stop offset="0.74" stop-color="#8DE6FF" stop-opacity="1"/><stop offset="0.83" stop-color="#8DE6FF" stop-opacity="1"/><stop offset="1" stop-color="#B3EFFF" stop-opacity="1"/></linearGradient><linearGradient x1="1732.5" y1="1806" x2="1732.5" y2="1819" gradientUnits="userSpaceOnUse" spreadMethod="reflect" id="fill1"><stop offset="0" stop-color="#F2FCFF" stop-opacity="1"/><stop offset="0.74" stop-color="#8DE6FF" stop-opacity="1"/><stop offset="0.83" stop-color="#8DE6FF" stop-opacity="1"/><stop offset="1" stop-color="#B3EFFF" stop-opacity="1"/></linearGradient><linearGradient x1="1746.5" y1="1707" x2="1746.5" y2="1918" gradientUnits="userSpaceOnUse" spreadMethod="reflect" id="fill2"><stop offset="0" stop-color="#F2FCFF" stop-opacity="1"/><stop offset="0.74" stop-color="#8DE6FF" stop-opacity="1"/><stop offset="0.83" stop-color="#8DE6FF" stop-opacity="1"/><stop offset="1" stop-color="#B3EFFF" stop-opacity="1"/></linearGradient><linearGradient x1="1767.5" y1="1809" x2="1767.5" y2="1816" gradientUnits="userSpaceOnUse" spreadMethod="reflect" id="fill3"><stop offset="0" stop-color="#F2FCFF" stop-opacity="1"/><stop offset="0.74" stop-color="#8DE6FF" stop-opacity="1"/><stop offset="0.83" stop-color="#8DE6FF" stop-opacity="1"/><stop offset="1" stop-color="#B3EFFF" stop-opacity="1"/></linearGradient><linearGradient x1="1781" y1="1809" x2="1781" y2="1816" gradientUnits="userSpaceOnUse" spreadMethod="reflect" id="fill4"><stop offset="0" stop-color="#F2FCFF" stop-opacity="1"/><stop offset="0.74" stop-color="#8DE6FF" stop-opacity="1"/><stop offset="0.83" stop-color="#8DE6FF" stop-opacity="1"/><stop offset="1" stop-color="#B3EFFF" stop-opacity="1"/></linearGradient></defs><g transform="translate(-1650 -1705)"><g><rect x="1717" y="1813" width="4.99976" height="6.00024" fill="url(#fill0)"/><rect x="1730" y="1806" width="4.99976" height="13.0001" fill="url(#fill1)"/><path d="M1839.45 1852.92C1838.33 1848.71 1835.64 1845.19 1831.88 1843.01 1828.12 1840.82 1823.74 1840.23 1819.53 1841.35 1816.15 1842.25 1813.26 1844.19 1811.11 1846.85L1791.73 1835.66 1801.36 1835.66C1802.78 1835.66 1803.93 1834.51 1803.93 1833.09L1803.93 1791.91C1803.93 1790.49 1802.78 1789.34 1801.36 1789.34L1791.75 1789.34 1811.08 1778.16C1814.23 1782.04 1818.92 1784.19 1823.74 1784.19 1826.48 1784.19 1829.27 1783.49 1831.81 1782.03 1835.59 1779.86 1838.29 1776.36 1839.43 1772.15 1840.56 1767.95 1840 1763.56 1837.83 1759.78 1835.66 1756.01 1832.16 1753.3 1827.95 1752.17 1823.76 1751.03 1819.37 1751.6 1815.59 1753.77 1808.56 1757.81 1805.74 1766.33 1808.54 1773.68L1781.47 1789.34 1749.07 1789.34 1749.07 1739.33C1756.81 1738.09 1762.77 1731.42 1762.79 1723.33 1762.81 1714.35 1755.52 1707.02 1746.54 1707L1746.5 1707C1742.16 1707 1738.08 1708.69 1735.01 1711.75 1731.93 1714.82 1730.22 1718.9 1730.21 1723.26 1730.2 1731.38 1736.16 1738.08 1743.93 1739.33L1743.93 1789.34 1735.36 1789.34 1735.36 1757.61 1730.21 1757.61 1730.21 1789.34 1721.64 1789.34 1721.64 1771.33 1716.5 1771.33 1716.5 1789.34 1711.53 1789.34 1684.47 1773.69C1685.69 1770.52 1685.92 1767.07 1685.04 1763.72 1683.92 1759.51 1681.23 1755.99 1677.47 1753.8 1669.71 1749.3 1659.72 1751.94 1655.21 1759.72 1653.03 1763.49 1652.44 1767.88 1653.55 1772.08 1654.67 1776.29 1657.36 1779.81 1661.12 1781.99 1663.64 1783.45 1666.43 1784.2 1669.27 1784.2 1670.67 1784.2 1672.08 1784.02 1673.47 1783.65 1676.85 1782.75 1679.74 1780.81 1681.9 1778.14L1701.25 1789.34 1691.64 1789.34C1690.22 1789.34 1689.07 1790.49 1689.07 1791.91L1689.07 1833.09C1689.07 1834.51 1690.22 1835.66 1691.64 1835.66L1700.59 1835.66 1681.87 1846.83C1676.93 1840.77 1668.2 1838.95 1661.19 1842.97 1657.41 1845.14 1654.71 1848.65 1653.57 1852.85 1652.44 1857.05 1653.01 1861.44 1655.17 1865.22 1657.34 1868.99 1660.84 1871.7 1665.05 1872.83 1666.46 1873.22 1667.9 1873.41 1669.32 1873.41 1672.13 1873.41 1674.9 1872.67 1677.41 1871.23 1684.45 1867.19 1687.27 1858.65 1684.45 1851.28L1710.63 1835.66 1743.93 1835.66 1743.93 1885.67C1736.19 1886.91 1730.23 1893.58 1730.21 1901.67 1730.19 1910.65 1737.48 1917.98 1746.46 1918L1746.5 1918C1750.84 1918 1754.92 1916.32 1757.99 1913.25 1761.07 1910.19 1762.78 1906.1 1762.79 1901.74 1762.81 1893.62 1756.84 1886.92 1749.07 1885.67L1749.07 1835.66 1781.45 1835.66 1808.53 1851.31C1807.31 1854.48 1807.08 1857.93 1807.96 1861.28 1809.08 1865.49 1811.77 1869.01 1815.53 1871.2 1818.1 1872.69 1820.9 1873.4 1823.68 1873.4 1829.3 1873.4 1834.77 1870.49 1837.79 1865.28 1839.98 1861.51 1840.56 1857.13 1839.45 1852.92ZM1818.15 1758.23C1819.87 1757.25 1821.77 1756.74 1823.69 1756.74 1824.66 1756.74 1825.65 1756.87 1826.61 1757.14 1829.49 1757.91 1831.89 1759.76 1833.37 1762.35 1834.85 1764.93 1835.24 1767.93 1834.46 1770.81 1833.69 1773.68 1831.84 1776.09 1829.26 1777.57 1823.93 1780.63 1817.11 1778.78 1814.04 1773.45 1810.98 1768.12 1812.83 1761.29 1818.15 1758.23ZM1678.93 1773.5C1677.44 1776.07 1675.03 1777.91 1672.15 1778.68 1669.28 1779.44 1666.28 1779.04 1663.7 1777.54 1661.13 1776.05 1659.29 1773.64 1658.52 1770.76 1657.76 1767.88 1658.16 1764.88 1659.66 1762.3 1661.72 1758.74 1665.47 1756.75 1669.32 1756.75 1671.21 1756.75 1673.13 1757.24 1674.89 1758.26 1677.47 1759.75 1679.3 1762.16 1680.07 1765.04 1680.83 1767.92 1680.43 1770.92 1678.93 1773.5ZM1674.85 1866.77C1672.26 1868.25 1669.27 1868.64 1666.39 1867.87 1663.51 1867.09 1661.12 1865.24 1659.63 1862.66 1658.15 1860.07 1657.76 1857.07 1658.54 1854.19 1659.31 1851.32 1661.16 1848.92 1663.74 1847.43 1665.49 1846.43 1667.39 1845.95 1669.28 1845.95 1673.14 1845.95 1676.9 1847.96 1678.96 1851.55 1682.02 1856.88 1680.17 1863.71 1674.85 1866.77ZM1735.36 1723.27C1735.36 1720.29 1736.53 1717.49 1738.64 1715.39 1740.74 1713.3 1743.53 1712.15 1746.5 1712.15L1746.53 1712.15C1752.67 1712.16 1757.66 1717.18 1757.64 1723.32 1757.63 1729.46 1752.63 1734.45 1746.5 1734.45L1746.47 1734.45C1740.33 1734.43 1735.34 1729.42 1735.36 1723.27ZM1757.64 1901.73C1757.64 1904.71 1756.47 1907.51 1754.36 1909.61 1752.26 1911.7 1749.47 1912.85 1746.5 1912.85L1746.47 1912.85C1740.33 1912.84 1735.34 1907.82 1735.36 1901.68 1735.37 1895.54 1740.37 1890.55 1746.5 1890.55L1746.53 1890.55C1752.67 1890.57 1757.66 1895.58 1757.64 1901.73ZM1694.21 1830.51 1694.21 1794.49 1798.79 1794.49 1798.79 1830.51 1694.21 1830.51ZM1833.35 1862.7C1830.26 1868.01 1823.43 1869.83 1818.11 1866.74 1815.53 1865.25 1813.7 1862.84 1812.93 1859.96 1812.17 1857.09 1812.57 1854.08 1814.07 1851.51 1815.56 1848.93 1817.97 1847.09 1820.85 1846.33 1821.8 1846.07 1822.76 1845.95 1823.73 1845.95 1825.66 1845.95 1827.58 1846.46 1829.3 1847.46 1831.87 1848.95 1833.71 1851.36 1834.48 1854.24 1835.24 1857.12 1834.84 1860.12 1833.35 1862.7Z" fill="url(#fill2)" fill-rule="evenodd"/><path d="M1764 1812.5C1764 1810.57 1765.57 1809 1767.5 1809 1769.43 1809 1771 1810.57 1771 1812.5 1771 1814.43 1769.43 1816 1767.5 1816 1765.57 1816 1764 1814.43 1764 1812.5Z" fill="url(#fill3)" fill-rule="evenodd"/><path d="M1778 1812.5C1778 1810.57 1779.34 1809 1781 1809 1782.66 1809 1784 1810.57 1784 1812.5 1784 1814.43 1782.66 1816 1781 1816 1779.34 1816 1778 1814.43 1778 1812.5Z" fill="url(#fill4)" fill-rule="evenodd"/></g></g></svg>