<svg fill="none" height="360" viewBox="0 0 360 360" width="360" xmlns="http://www.w3.org/2000/svg"><path d="m0 82c0-45.2873 36.7127-82 82-82h196c45.287 0 82 36.7127 82 82v196c0 45.287-36.713 82-82 82h-196c-45.2873 0-82-36.713-82-82z" fill="#0c0c0c"/><g fill="#67bf1b"><path d="m266.009 83.2859 7.305-24.7301c.29-.9803.347-2.0148.167-3.0213-.18-1.0064-.592-1.9569-1.204-2.776s-1.406-1.4842-2.32-1.9423-1.922-.6966-2.945-.6966h-102.379c-13.065-.2389-26.037 2.2406-38.092 7.2812-12.055 5.0405-22.931 12.532-31.9377 21.9991-9.0064 9.4671-15.9464 20.7031-20.3797 32.9951-4.4334 12.291-6.2632 25.37-5.3734 38.407 1.9305 23.298 12.5386 45.023 29.7243 60.873 17.1855 15.849 39.6955 24.668 63.0745 24.711h35.481c4.568.09 9.027-1.395 12.629-4.206 3.601-2.81 6.126-6.774 7.15-11.226.572-2.822.509-5.737-.184-8.532s-1.998-5.4-3.823-7.628c-1.824-2.229-4.121-4.023-6.724-5.254-2.604-1.231-5.448-1.867-8.328-1.863h-34.092c-14.091.207-27.739-4.923-38.204-14.363-10.465-9.438-16.971-22.487-18.213-36.525-.467-7.418.589-14.852 3.104-21.846 2.516-6.994 6.436-13.399 11.52-18.821 5.084-5.421 11.225-9.7447 18.043-12.7034 6.818-2.9586 14.17-4.4901 21.602-4.5l97.082-.1929c1.626-.0049 3.208-.5344 4.51-1.5097s2.255-2.3446 2.717-3.9044"/><path d="m198.828 123.563h-35.687c-4.515-.064-8.915 1.421-12.468 4.208-3.552 2.787-6.042 6.708-7.053 11.109-.602 2.828-.564 5.756.111 8.568.674 2.812 1.968 5.437 3.787 7.685s4.118 4.062 6.727 5.308c2.61 1.246 5.464 1.894 8.356 1.896h34.324c14.02-.183 27.594 4.932 38.005 14.324 10.412 9.391 16.896 22.367 18.155 36.332.504 7.437-.525 14.899-3.023 21.923-2.498 7.023-6.411 13.459-11.498 18.909-5.087 5.449-11.238 9.796-18.073 12.771s-14.208 4.515-21.663 4.525h-98.187c-1.3429 0-2.6496.435-3.7251 1.24-1.0754.804-1.8619 1.934-2.242 3.222l-7.7161 26.158c-.2639.948-.3065 1.944-.1247 2.911.1818.968.5832 1.88 1.1734 2.668.5901.788 1.3532 1.429 2.2305 1.876.8772.446 1.8452.685 2.8293.698h103.2667c12.506.066 24.903-2.333 36.48-7.061 11.578-4.728 22.111-11.692 30.996-20.493 8.885-8.802 15.948-19.268 20.785-30.801 4.837-11.532 7.354-23.905 7.406-36.411-.448-24.423-10.458-47.695-27.88-64.816-17.422-17.122-40.865-26.726-65.292-26.749z"/></g></svg>