<svg width="220" height="220" viewBox="0 0 220 156" preserveAspectRatio="xMidYMid meet" xmlns="http://www.w3.org/2000/svg" xmlns:xlink="http://www.w3.org/1999/xlink" xml:space="preserve" overflow="hidden"><defs><linearGradient x1="2200" y1="1166" x2="2200" y2="1316" gradientUnits="userSpaceOnUse" spreadMethod="reflect" id="fill0"><stop offset="0" stop-color="#F0F8FD" stop-opacity="1"/><stop offset="0.74" stop-color="#84E291" stop-opacity="1"/><stop offset="0.83" stop-color="#4EA72E" stop-opacity="1"/><stop offset="1" stop-color="#8ED973" stop-opacity="1"/></linearGradient><linearGradient x1="2127.5" y1="1201" x2="2127.5" y2="1246" gradientUnits="userSpaceOnUse" spreadMethod="reflect" id="fill1"><stop offset="0" stop-color="#F0F8FD" stop-opacity="1"/><stop offset="0.74" stop-color="#84E291" stop-opacity="1"/><stop offset="0.83" stop-color="#4EA72E" stop-opacity="1"/><stop offset="1" stop-color="#8ED973" stop-opacity="1"/></linearGradient><linearGradient x1="2272.5" y1="1201" x2="2272.5" y2="1246" gradientUnits="userSpaceOnUse" spreadMethod="reflect" id="fill2"><stop offset="0" stop-color="#F0F8FD" stop-opacity="1"/><stop offset="0.74" stop-color="#84E291" stop-opacity="1"/><stop offset="0.83" stop-color="#4EA72E" stop-opacity="1"/><stop offset="1" stop-color="#8ED973" stop-opacity="1"/></linearGradient><linearGradient x1="2200" y1="1187" x2="2200" y2="1261" gradientUnits="userSpaceOnUse" spreadMethod="reflect" id="fill3"><stop offset="0" stop-color="#F0F8FD" stop-opacity="1"/><stop offset="0.74" stop-color="#84E291" stop-opacity="1"/><stop offset="0.83" stop-color="#4EA72E" stop-opacity="1"/><stop offset="1" stop-color="#8ED973" stop-opacity="1"/></linearGradient><linearGradient x1="2192.5" y1="1214" x2="2192.5" y2="1248" gradientUnits="userSpaceOnUse" spreadMethod="reflect" id="fill4"><stop offset="0" stop-color="#F0F8FD" stop-opacity="1"/><stop offset="0.74" stop-color="#84E291" stop-opacity="1"/><stop offset="0.83" stop-color="#4EA72E" stop-opacity="1"/><stop offset="1" stop-color="#8ED973" stop-opacity="1"/></linearGradient></defs><g transform="translate(-2090 -1164)"><g><path d="M2296.52 1166 2103.48 1166C2098.25 1166 2094 1170.25 2094 1175.48L2094 1292.72C2094 1297.95 2098.25 1302.21 2103.48 1302.21L2197.41 1302.21 2197.41 1310.83 2151.74 1310.83 2151.74 1316 2248.26 1316 2248.26 1310.83 2202.59 1310.83 2202.59 1302.21 2296.52 1302.21C2301.75 1302.21 2306 1297.95 2306 1292.72L2306 1175.48C2306 1170.25 2301.75 1166 2296.52 1166ZM2300.83 1292.72C2300.83 1295.1 2298.9 1297.03 2296.52 1297.03L2103.48 1297.03C2101.1 1297.03 2099.17 1295.1 2099.17 1292.72L2099.17 1281.52 2300.83 1281.52 2300.83 1292.72ZM2300.83 1276.34 2099.17 1276.34 2099.17 1175.48C2099.17 1173.11 2101.1 1171.17 2103.48 1171.17L2296.52 1171.17C2298.9 1171.17 2300.83 1173.11 2300.83 1175.48L2300.83 1276.34Z" fill="url(#fill0)" fill-rule="evenodd"/><path d="M2136.36 1201 2115.75 1221.67C2114.75 1222.68 2114.75 1224.32 2115.75 1225.33L2136.36 1246 2140 1242.35 2121.22 1223.5 2140 1204.65 2136.36 1201Z" fill="url(#fill1)" fill-rule="evenodd"/><path d="M2263.64 1201 2260 1204.65 2278.78 1223.5 2260 1242.35 2263.64 1246 2284.25 1225.33C2285.25 1224.32 2285.25 1222.68 2284.25 1221.67L2263.64 1201Z" fill="url(#fill2)" fill-rule="evenodd"/><path d="M2227.54 1214.53C2225.86 1214.53 2224.32 1215.01 2222.95 1215.77L2208.23 1201.05C2208.99 1199.68 2209.47 1198.14 2209.47 1196.47 2209.47 1191.25 2205.22 1187 2200 1187 2194.78 1187 2190.53 1191.25 2190.53 1196.47 2190.53 1198.14 2191.01 1199.68 2191.77 1201.05L2177.05 1215.77C2175.68 1215.01 2174.14 1214.53 2172.47 1214.53 2167.24 1214.53 2163 1218.78 2163 1224 2163 1229.22 2167.24 1233.47 2172.47 1233.47 2177.68 1233.47 2181.93 1229.22 2181.93 1224 2181.93 1222.33 2181.46 1220.78 2180.7 1219.42L2195.42 1204.7C2196.78 1205.46 2198.33 1205.93 2200 1205.93 2201.67 1205.93 2203.22 1205.46 2204.58 1204.7L2219.3 1219.42C2218.54 1220.78 2218.07 1222.33 2218.07 1224 2218.07 1225.67 2218.54 1227.22 2219.3 1228.58L2204.58 1243.3C2203.22 1242.54 2201.67 1242.07 2200 1242.07 2194.78 1242.07 2190.53 1246.31 2190.53 1251.54 2190.53 1256.75 2194.78 1261 2200 1261 2205.22 1261 2209.47 1256.75 2209.47 1251.54 2209.47 1249.86 2208.99 1248.32 2208.23 1246.95L2222.95 1232.23C2224.32 1232.99 2225.86 1233.47 2227.54 1233.47 2232.75 1233.47 2237 1229.22 2237 1224 2237 1218.78 2232.75 1214.53 2227.54 1214.53ZM2172.47 1228.3C2170.09 1228.3 2168.16 1226.37 2168.16 1224 2168.16 1221.63 2170.09 1219.7 2172.47 1219.7 2174.84 1219.7 2176.77 1221.63 2176.77 1224 2176.77 1226.37 2174.84 1228.3 2172.47 1228.3ZM2200 1200.77C2197.63 1200.77 2195.7 1198.84 2195.7 1196.47 2195.7 1194.09 2197.63 1192.16 2200 1192.16 2202.37 1192.16 2204.3 1194.09 2204.3 1196.47 2204.3 1198.84 2202.37 1200.77 2200 1200.77ZM2200 1255.84C2197.63 1255.84 2195.7 1253.91 2195.7 1251.54 2195.7 1249.16 2197.63 1247.23 2200 1247.23 2202.37 1247.23 2204.3 1249.16 2204.3 1251.54 2204.3 1253.91 2202.37 1255.84 2200 1255.84ZM2227.54 1228.3C2225.16 1228.3 2223.23 1226.37 2223.23 1224 2223.23 1221.63 2225.16 1219.7 2227.54 1219.7 2229.91 1219.7 2231.84 1221.63 2231.84 1224 2231.84 1226.37 2229.91 1228.3 2227.54 1228.3Z" fill="url(#fill3)" fill-rule="evenodd"/><path d="M2199.81 1232.95C2204.88 1232.95 2209 1228.7 2209 1223.47 2209 1218.25 2204.88 1214 2199.81 1214 2194.73 1214 2190.61 1218.25 2190.61 1223.47 2190.61 1225.14 2191.07 1226.69 2191.81 1228.06L2176 1244.35 2179.55 1248 2195.36 1231.71C2196.68 1232.47 2198.18 1232.95 2199.81 1232.95ZM2199.81 1219.17C2202.11 1219.17 2203.99 1221.1 2203.99 1223.47 2203.99 1225.85 2202.11 1227.78 2199.81 1227.78 2197.5 1227.78 2195.63 1225.85 2195.63 1223.47 2195.63 1221.1 2197.5 1219.17 2199.81 1219.17Z" fill="url(#fill4)" fill-rule="evenodd"/></g></g></svg>