<svg width="142" height="147" xmlns="http://www.w3.org/2000/svg" xmlns:xlink="http://www.w3.org/1999/xlink" xml:space="preserve" overflow="hidden"><defs><radialGradient cx="382386" cy="390699" r="546685" fy="390699" gradientUnits="userSpaceOnUse" spreadMethod="pad" id="fill0" gradientTransform="matrix(0.000360892 0 0 0.000360892 1903 1989)"><stop offset="0" stop-color="#FFFFFF" stop-opacity="1"/><stop offset="0.23" stop-color="#AAD8BC" stop-opacity="1"/><stop offset="0.68" stop-color="#8CB63F" stop-opacity="1"/><stop offset="0.97" stop-color="#92D050" stop-opacity="1"/><stop offset="1" stop-color="#92D050" stop-opacity="1"/></radialGradient><radialGradient cx="108066" cy="121920" r="162920" fx="108066" fy="121920" gradientUnits="userSpaceOnUse" spreadMethod="pad" id="fill1" gradientTransform="matrix(0.000360892 0 0 0.000360892 1933 2008)"><stop offset="0" stop-color="#AAD8BC" stop-opacity="1"/><stop offset="0.23" stop-color="#AAD8BC" stop-opacity="1"/><stop offset="0.68" stop-color="#8CB63F" stop-opacity="1"/><stop offset="0.97" stop-color="#92D050" stop-opacity="1"/><stop offset="1" stop-color="#92D050" stop-opacity="1"/></radialGradient></defs><g transform="translate(-1902 -1984)"><g><path d="M2041 2086.65 2041 1990.72C2041 1989.77 2040.06 1989 2038.91 1989L1905.09 1989C1903.94 1989 1903 1989.77 1903 1990.72L1903 2086.65C1903 2098.49 1911.45 2109.07 1924.52 2113.62L1971.19 2129.86C1971.44 2129.96 1971.72 2130 1972 2130 1972.28 2130 1972.56 2129.96 1972.81 2129.86L2019.48 2113.62C2032.55 2109.07 2041 2098.49 2041 2086.65ZM1972 2126.41 1926.15 2110.45C1914.63 2106.44 1907.18 2097.1 1907.18 2086.65L1907.18 1992.44 2036.82 1992.44 2036.82 2086.65C2036.82 2097.1 2029.37 2106.44 2017.85 2110.45L1972 2126.41Z" fill="url(#fill0)" fill-rule="evenodd"/><path d="M2009.25 2043.65 1997.03 2043.65 1997.03 2031.95C1997.03 2018.74 1985.8 2008 1972 2008 1958.2 2008 1946.97 2018.74 1946.97 2031.95L1946.97 2043.65 1934.75 2043.65C1933.78 2043.65 1933 2044.39 1933 2045.32L1933 2094.33C1933 2095.25 1933.78 2096 1934.75 2096L2009.25 2096C2010.22 2096 2011 2095.25 2011 2094.33L2011 2045.32C2011 2044.39 2010.22 2043.65 2009.25 2043.65ZM1950.46 2031.95C1950.46 2020.59 1960.12 2011.34 1972 2011.34 1983.88 2011.34 1993.54 2020.59 1993.54 2031.95L1993.54 2043.65 1950.46 2043.65 1950.46 2031.95ZM2007.51 2092.66 1936.49 2092.66 1936.49 2046.99 2007.51 2046.99 2007.51 2092.66Z" fill="url(#fill1)" fill-rule="evenodd"/></g></g></svg>