<svg width="216" height="215" xmlns="http://www.w3.org/2000/svg" xmlns:xlink="http://www.w3.org/1999/xlink" xml:space="preserve" overflow="hidden"><defs><clipPath id="clip0"><rect x="2332" y="1952" width="216" height="215"/></clipPath><clipPath id="clip1"><rect x="2332" y="1952" width="216" height="215"/></clipPath><radialGradient cx="293716" cy="292331" r="414399" fx="587432" fy="584662" gradientUnits="userSpaceOnUse" spreadMethod="pad" id="fill2" gradientTransform="matrix(0.000360892 0 0 0.000360892 2336 1954)"><stop offset="0" stop-color="#FFFFFF" stop-opacity="1"/><stop offset="0.23" stop-color="#AAD8BC" stop-opacity="1"/><stop offset="0.68" stop-color="#8CB63F" stop-opacity="1"/><stop offset="0.97" stop-color="#92D050" stop-opacity="1"/><stop offset="1" stop-color="#92D050" stop-opacity="1"/></radialGradient></defs><g clip-path="url(#clip0)" transform="translate(-2332 -1952)"><g clip-path="url(#clip1)"><path d="M2350.55 2075.04 2354.2 2071.4 2344.83 2062.07 2411.84 2062.07 2411.84 2111.82 2338.59 2111.82 2338.59 2116.97 2411.84 2116.97 2411.84 2162.43C2411.84 2163.85 2413 2165 2414.42 2165L2469.58 2165C2471 2165 2472.16 2163.85 2472.16 2162.43L2472.16 2116.97 2539.17 2116.97 2529.8 2126.3 2533.45 2129.94 2547.24 2116.21C2548.25 2115.21 2548.25 2113.58 2547.24 2112.58L2533.45 2098.85 2529.8 2102.49 2539.17 2111.82 2472.16 2111.82 2472.16 2062.07 2545.41 2062.07 2545.41 2056.93 2472.16 2056.93 2472.16 2007.18 2539.17 2007.18 2529.8 2016.51 2533.45 2020.15 2547.24 2006.43C2548.25 2005.42 2548.25 2003.79 2547.24 2002.79L2533.45 1989.06 2529.8 1992.7 2539.17 2002.03 2472.16 2002.03 2472.16 1956.57C2472.16 1955.15 2471 1954 2469.58 1954L2414.42 1954C2413 1954 2411.84 1955.15 2411.84 1956.57L2411.84 2002.03 2338.59 2002.03 2338.59 2007.18 2411.84 2007.18 2411.84 2056.93 2344.83 2056.93 2354.2 2047.6 2350.55 2043.96 2336.76 2057.68C2335.75 2058.69 2335.75 2060.31 2336.76 2061.32L2350.55 2075.04ZM2417.01 1959.15 2466.99 1959.15 2466.99 2002.03 2442 2002.03 2442 2007.18 2466.99 2007.18 2466.99 2056.93 2442 2056.93 2442 2062.07 2466.99 2062.07 2466.99 2111.82 2442 2111.82 2442 2116.97 2466.99 2116.97 2466.99 2159.85 2417.01 2159.85 2417.01 1959.15Z" fill="url(#fill2)" fill-rule="evenodd"/></g></g></svg>