<svg xmlns="http://www.w3.org/2000/svg" fill="none" viewBox="0 0 512 512" height="512" width="512">
<path fill="#0038F5" d="M357.49 463.918L483.998 305.482L438.812 107.901L357.407 463.918H357.49Z"></path>
<path fill="#003472" d="M357.491 463.918H153.7L28 305.477L141.979 90.4641L357.409 72.4684L438.813 107.983L357.409 464L357.491 463.918Z"></path>
<path fill="#006BFF" d="M28 305.476L154.508 463.912H357.409L28 305.476Z"></path>
<path fill="#006BFF" d="M28 305.476L121.691 184.652L252.568 108.701L256.047 20L73.186 107.895L28 305.476Z"></path>
<path fill="#006BFF" d="M438.814 107.895L484 305.476L357.492 463.912L438.897 107.895H438.814Z"></path>
<path fill="#50BCFF" d="M438.813 107.895H73.1863L255.959 20L438.813 107.895Z"></path>
<path fill="white" d="M384.248 184.652L253.372 260.52L121.687 184.652L252.564 108.701L384.248 184.652Z"></path>
<path fill="#50BCFF" d="M384.248 184.652L383.841 350.351L252.965 413.71L253.371 260.52L384.248 184.652Z"></path>
<path fill="#0552C1" d="M253.368 260.52L252.967 413.71L121.2 350.351L121.684 184.652L253.368 260.52Z"></path>
</svg>
