<svg width="255" height="255" viewBox="0 0 255 255" fill="none" xmlns="http://www.w3.org/2000/svg">
<path d="M0 46.1475L0.07248 45.9588C0.400743 45.0907 0.484829 44.4114 0.729482 43.5697C2.88113 36.1672 7.40862 29.6116 14.5829 26.3218C18.1022 24.704 21.8969 23.7697 25.765 23.5686C29.2727 23.3559 33.7748 23.4778 37.3391 23.4789L57.6307 23.4936L118.842 23.5044L192.121 23.5047L215.725 23.4814C226.277 23.4644 237.185 22.3092 245.627 30.0554C249.848 33.9285 252.639 38.2664 254.298 43.8279C254.564 44.7219 254.704 45.5676 255 46.4745V209.889C254.582 210.554 253.812 214.031 253.324 215.231C250.47 222.24 245.191 227.604 238.186 230.513C235.328 231.697 232.288 232.386 229.198 232.55C225.139 232.756 220.366 232.631 216.235 232.626L194.582 232.615L126.152 232.615L60.2916 232.622L38.5593 232.629C30.6652 232.628 23.7066 233.377 16.253 230.279C9.68798 227.499 4.4938 222.228 1.81006 215.623C1.06214 213.771 0.772625 211.712 0.0735105 210.053L0 209.882V46.1475ZM204.193 205.659C211.681 203.543 216.779 197.428 214.896 189.25C214.454 187.331 212.857 184.731 211.378 183.369C206.061 179.345 199.107 175.81 193.333 172.44C182.566 166.156 171.827 160.011 161.051 153.762C158.538 152.304 155.189 150.71 152.238 151.22C148.097 152.018 145.4 152.971 142.872 156.656C140.638 159.913 139.721 162.912 140.492 166.875C141.334 171.202 143.69 173.446 147.331 175.658C151.845 178.4 156.659 181.085 161.27 183.688L178.918 193.85C184.9 197.259 191.333 201.166 197.423 204.486C199.314 205.517 202.062 205.784 204.193 205.659ZM53.7547 205.716C57.2948 204.735 69.1618 197.318 72.8339 195.205L91.9616 184.134C97.1679 181.143 109.775 174.554 112.472 169.882C114.085 167.097 114.482 163.772 113.571 160.685C112.041 155.379 106.172 150.143 100.512 151.218C94.73 152.227 90.2013 155.481 85.2305 158.395L70.4751 167.001L54.4318 176.322C51.1781 178.21 43.8961 181.881 41.8344 184.816C39.6137 187.962 38.771 191.876 39.5006 195.657C40.6967 202.088 47.5221 205.824 53.7547 205.716ZM127.112 131.999C132.179 131.85 136.041 128.707 138.568 124.435C139.494 122.868 139.508 120.279 139.726 118.499C139.93 108.965 139.903 99.264 139.937 89.7291L140 71.349C140.018 63.9338 141.493 55.2098 133.526 51.0526C131.877 50.1919 129.197 49.2778 127.294 49.3826C113.156 51.2617 114.352 61.4154 114.318 72.3458L114.267 91.0881L114.227 109.664C114.219 113.648 114.085 117.615 114.518 121.579C115.176 127.604 121.39 131.617 127.112 131.999Z" fill="#FFC619"/>
</svg>
