<svg width="476" height="420" viewBox="0 0 476 420" fill="none" xmlns="http://www.w3.org/2000/svg">
<g clip-path="url(#clip0_2159_1441)">
<path fill-rule="evenodd" clip-rule="evenodd" d="M466.898 226.996L373.522 173.12C368.31 170.12 361.907 170.12 356.696 173.12L263.319 226.996C258.092 229.996 254.869 235.546 254.869 241.559V349.311C254.869 355.324 258.108 360.889 263.319 363.874L356.696 417.75C361.907 420.75 368.31 420.75 373.522 417.75L466.898 363.874C472.125 360.874 475.348 355.324 475.348 349.311V241.559C475.348 235.546 472.125 229.981 466.898 226.996Z" fill="#0D964D"/>
<path fill-rule="evenodd" clip-rule="evenodd" d="M396.236 315.711C396.504 315.128 396.595 314.472 396.475 313.828V251.718C396.475 248.189 397.279 244.844 400.038 242.287C402.794 239.731 406.774 239.118 410.588 239.418C412.332 239.507 414.031 239.926 415.628 240.628C419.399 242.376 421.052 245.485 421.573 249.446C421.901 252.748 421.992 256.065 421.842 259.37V334.676C421.842 336.874 421.634 339.057 421.26 341.224C420.218 346.574 415.717 350.563 410.291 350.937C406.072 351.176 401.856 350.998 397.846 349.128C394.774 347.739 392.064 345.691 389.872 343.135C386.429 338.981 382.912 334.872 379.439 330.761C375.965 326.652 371.958 321.75 368.245 317.237C364.533 312.722 360.063 307.344 356.009 302.426L345.561 289.648L335.008 276.796C334.8 276.541 334.619 276.168 334.128 276.226C333.92 276.781 333.861 277.394 333.979 277.991V338.578C333.979 342.046 333.31 345.407 330.523 347.918C328.628 349.576 326.259 350.609 323.741 350.878C320.059 351.296 316.347 351.296 313.188 348.874C310.028 346.455 308.522 343.928 308.522 340.087C308.581 311.17 308.581 282.281 308.522 253.45C308.522 249.955 309.194 246.65 311.892 244.111C316.794 239.463 325.722 238.176 331.789 241.018C336.112 243.035 338.957 246.457 341.833 249.983C346.245 255.455 350.733 260.863 355.173 266.305C359.615 271.744 363.356 276.333 367.455 281.309L379.871 296.194L394.238 313.62C394.879 314.352 395.522 315.024 396.206 315.772L396.236 315.711Z" fill="white"/>
</g>
<path d="M127.022 10.0474C133.699 10.3571 139.524 13.967 145.474 16.7988L169.336 28.2411L202.62 44.0765C208.043 46.6831 213.478 49.2682 218.866 51.9532C222.56 53.7939 225.883 57.1336 227.008 61.1932C228.444 66.3763 229.561 71.7378 230.77 76.986L237.693 107.053L244.603 137.028C245.6 141.34 246.623 145.655 247.595 149.973C248.16 152.486 248.737 155.539 248.67 158.159C248.563 162.352 244.922 167.055 242.467 170.057C239.802 173.316 237.304 176.437 234.731 179.634L213.811 205.645L195.803 228.024C192.975 231.552 188.642 237.401 185.579 240.432C183.624 242.354 181.178 243.701 178.509 244.326C174.21 245.3 164.049 245.014 159.135 245.013L128.372 244.997L96.4667 245.013C73.5309 245.02 74.8855 247.52 60.3874 229.369L46.6408 212.225L22.6345 182.416C18.2645 176.991 13.7572 171.601 9.60021 166.024C6.89091 162.389 5.75589 158.353 6.6393 153.873C7.74972 148.243 9.09275 142.688 10.3828 137.1L17.0391 108.17L23.6619 79.3126C24.9563 73.6483 26.2164 67.8929 27.6722 62.3569C28.7298 58.3359 31.4153 54.2678 35.1379 52.3319C39.524 50.0514 44.4195 47.8179 48.9042 45.6827L74.8126 33.301L103.932 19.4015C110.558 16.2236 119.98 10.826 127.022 10.0474ZM121.055 66.6221C104.447 69.3305 92.1979 74.0931 80.2679 86.6944C79.224 86.2922 78.3736 85.9976 77.2804 85.7616C70.3867 84.2719 67.0186 74.6173 60.3695 73.1597C53.295 74.7869 54.555 80.9821 59.8991 83.9176C62.6602 85.4341 65.4747 87.2819 68.1781 88.915C70.5251 90.4529 71.4702 93.5109 73.0266 95.5885C63.552 112.278 61.5558 121.682 62.8074 140.796C60.5557 141.872 58.63 143.728 56.3814 144.274C52.4699 145.113 48.0077 145.082 44.1172 145.73C40.6784 146.303 37.5537 150.027 39.463 153.306C43.0499 159.465 53.9394 151.455 59.0379 151.168C61.2899 151.041 63.1762 151.653 65.211 151.847C67.5944 157.185 69.5014 162.006 72.5816 166.813C78.3375 175.795 85.2999 181.893 93.9485 187.84C94.272 188.412 93.8813 189.747 93.9216 190.267C94.1485 193.192 92.2377 197.87 89.8964 200.401C86.0435 204.567 81.8179 215.938 92.1058 213.494C96.2366 212.513 97.5424 200.445 100.1 197.303C101.656 195.099 102.582 194.427 104.587 192.882C112.987 195.393 119.721 197.225 128.709 197.001C133.6 196.785 137.727 196.376 142.566 195.25C145.061 194.669 148.353 193.454 150.689 193.009C152.548 194.557 153.739 195.432 155.226 197.553C158.384 202.057 158.155 214.305 165.412 213.948C167.765 213.833 169.995 210.717 169.6 208.512C168.367 201.808 158.137 194.9 161.684 187.581C161.924 187.084 165.911 184.489 166.693 183.906C175.046 177.675 181.709 169.501 186.258 160.133C187.537 157.499 188.545 154.189 190.039 151.704C191.249 151.486 194.83 150.693 195.74 150.927C199.506 151.896 203.621 153.34 207.257 154.799C214.22 157.596 219.446 151.67 213.729 146.721C210.916 144.287 201.938 145.54 198.363 143.999C195.404 143.027 194.714 141.973 192.447 140.583C193.049 121.466 192.144 112.835 181.877 95.6608C183.105 93.4681 183.807 91.8729 185.602 90.0505C190.762 84.8133 197.161 85.0713 199.837 77.9119C198.772 75.0608 196.844 71.9617 193.202 73.5096C188.55 75.4869 185.76 81.1245 181.547 83.9156C178.961 85.6926 177.107 85.5048 174.621 86.7039C172.552 84.7657 170.817 82.9125 168.582 81.115C157.755 72.4092 147.301 68.5396 133.798 66.592C132.115 64.1829 131.905 63.7579 131.22 60.801C129.935 55.2507 136.557 41.4234 127.3 40.8768C116.614 43.1474 128.936 58.0821 121.055 66.6221Z" fill="#486AB3"/>
<path d="M120.875 79.7395L121.186 79.7783L121.431 80.1765C121.36 83.889 120.762 88.2658 120.682 92.2532C120.324 96.4602 120.446 101.365 119.864 105.465C118.185 117.29 105.794 105.132 100.721 101.574C97.2987 99.2328 93.962 96.6594 90.5013 94.396C92.4895 92.7764 94.0148 91.2822 96.1529 89.694C104.181 83.7304 111.34 81.5728 120.875 79.7395Z" fill="#486AB3"/>
<path d="M148.061 144.997C148.194 144.981 148.327 144.963 148.46 144.946L148.671 144.926C151.097 144.68 156.463 145.812 159.028 146.216C164.97 147.151 170.985 148.378 176.966 149.104C174.07 156.582 171.05 161.772 165.648 167.699C162.425 171.03 159.541 173.227 155.804 175.825C152.201 168.02 148.851 159.457 145.666 151.445C144.461 148.413 145.452 146.726 148.061 144.997Z" fill="#486AB3"/>
<path d="M82.8663 104.403C83.8908 104.67 103.155 121.898 103.803 123.489L103.859 123.631C106.515 130.209 96.4085 131.309 91.944 132.469C88.2639 133.84 79.6166 136.042 75.3867 137.271C74.2616 124.856 76.6432 115.082 82.8663 104.403Z" fill="#486AB3"/>
<path d="M171.629 104.529L172.148 104.667C173.444 106.367 174.269 108.453 175.16 110.378C179.772 120.344 179.616 127.192 179.789 137.566C176.71 136.143 167.066 133.58 163.416 132.606C159.185 131.242 155.72 130.712 151.731 128.656C150.142 126.374 150.08 123.907 152.159 121.965C158.254 116.269 165.1 109.666 171.629 104.529Z" fill="#486AB3"/>
<path d="M127.094 155.438C131.729 155.794 133.665 161.627 135.703 165.288L144.508 181.165C138.957 183.17 134.123 183.681 128.342 183.965C122.309 184.023 116.308 183.082 110.583 181.181C114.636 174.375 118.141 167.025 122.149 160.171C123.59 157.708 124.265 156.258 127.094 155.438Z" fill="#486AB3"/>
<path d="M104.403 145.016C107.501 144.724 110.643 147.27 109.752 150.325C108.295 155.321 105.854 160.426 103.889 165.275C102.532 168.622 100.952 172.862 99.2605 176.001C96.3429 173.564 93.8607 171.861 91.1104 169.178C84.5208 162.894 81.7185 157.599 78.2875 149.39C86.3439 147.806 96.2635 146.226 104.403 145.016Z" fill="#486AB3"/>
<path d="M133.71 79.5371C135.959 80.3377 139.765 80.8906 142.372 81.678C151.86 84.5432 157.007 88.2547 164.248 94.4088C161.927 96.324 157.318 99.4356 154.765 101.223C149.562 104.756 134.767 118.713 134.95 103.427C135.044 95.6611 133.442 87.1734 133.71 79.5371Z" fill="#486AB3"/>
<path d="M124.011 123.29C132.086 122.681 131.908 123.524 136.682 129.527C135.3 136.98 136.332 136.675 129.577 140.086C129.174 140.357 127.779 140.746 127.236 140.915L120.489 137.729C119.548 135.929 118.758 131.833 118.281 129.701C119.519 127.818 122.038 124.368 124.011 123.29Z" fill="#486AB3"/>
<defs>
<clipPath id="clip0_2159_1441">
<rect width="222" height="250" fill="white" transform="translate(254 170)"/>
</clipPath>
</defs>
</svg>
