<svg width="934" height="906" viewBox="0 0 934 906" fill="none" xmlns="http://www.w3.org/2000/svg">
<path d="M462.769 0.198923C470.935 -0.673268 482.794 1.41421 490.238 4.66996C504.989 11.1213 519.563 18.5046 534.136 25.3796L796.069 150.433C809.447 156.776 822.872 161.834 834.014 171.883C849.971 186.27 852.033 202.925 856.543 222.716L928.838 536.622C930.886 545.535 933.539 555.146 933.689 564.242C933.844 575.902 930.657 587.365 924.511 597.276C920.789 603.278 915.066 609.987 910.552 615.585L888.661 642.754L707.1 868.653C702.83 873.97 696.183 882.709 691.557 887.393C682.913 896.174 671.832 902.161 659.747 904.576C651.277 906.31 640.683 905.893 631.852 905.888L597.675 905.856L303.569 905.917C294.779 905.917 283.673 906.282 275.225 904.82C265.296 903.085 255.958 898.893 248.058 892.63C240.618 886.68 234.025 877.795 228.002 870.284L209.427 847.138L25.965 619.059C13.4729 603.536 2.55261 592.541 0.324035 571.542C-0.267106 565.751 -0.0486679 559.91 0.973113 554.18C2.25561 546.857 4.52882 538 6.23455 530.612L69.6585 254.804L77.6029 220.04C79.0715 213.591 80.6578 205.736 82.5304 199.492C84.7813 191.794 88.5164 184.611 93.5245 178.346C104.341 165.058 114.226 161.667 129.013 154.569L419.142 15.935C434.934 8.33834 444.897 2.01884 462.769 0.198923Z" fill="#326CE6"/>
<path d="M464.574 118.702C465.033 118.67 465.493 118.646 465.952 118.63C470.78 118.473 476.466 120.371 479.86 123.93C490.904 135.505 485.222 153.344 483.521 167.197C482.382 176.463 481.289 185.32 481.308 194.597C481.327 202.553 482.611 204.005 487.889 209.238C488.302 212.187 488.33 214.996 488.419 217.968C498.282 218.375 513.216 221.053 522.807 223.322C572.654 235.113 613.824 259.276 649.491 295.622C651.943 293.813 654.446 292.069 656.991 290.392C671.508 291.428 675.882 283.008 685.829 274.45C697.449 264.449 709.683 242.968 726.624 243.328C731.714 243.413 736.571 245.513 740.119 249.17C743.56 252.789 745.28 257.665 744.957 262.688C743.888 279.078 726.455 285.621 714.46 292.92C705.929 298.207 697.022 303.402 689.429 310.004C684.835 313.992 683.658 317.6 683.4 323.342C681.118 325.271 678.816 327.36 676.571 329.345C704.377 371.949 718.604 417.143 719.382 468.358C719.56 479.878 718.318 492.569 717.066 503.981L724.641 506.283C726.511 508.843 729.165 512.57 732.108 513.822C748.81 520.133 767.935 520.03 785.986 521.783C806.818 523.813 818.288 546.707 800.546 558.475C782.991 570.116 751.144 546.304 731.752 544.353C723.732 543.547 723.052 542.619 715.477 547.588C712.979 547.012 709.918 546.543 707.354 546.088C687.418 607.947 650.058 652.53 595.618 686.863C596.475 689.334 597.722 692.185 598.73 694.637C594.577 705.706 598.941 710.207 604.036 719.903C610.772 732.735 620.672 743.5 626.972 756.477C631.674 766.163 630.188 779.708 619.8 784.978C615.052 787.341 609.539 787.632 604.571 785.789C589.754 780.388 587.752 762.577 583.214 749.529C580.275 740.879 577.388 732.247 573.413 724.005C569.883 716.691 568.121 715.299 560.639 712.762L556.622 705.373C528.736 716.485 497.377 721.52 467.447 721.623C433.887 721.595 408.684 716.072 377.379 705.054C376.27 707.52 374.505 710.493 373.149 712.917C359.157 716.668 357.962 731.099 353.108 742.576C346.842 757.316 346.163 779.169 329.285 786.174C320.457 790.529 307.619 784.528 305.169 774.27C299.958 752.44 326.501 732.308 333.837 712.429C337.349 702.912 338.37 704.299 335.061 694.501L338.6 686.221C283.444 651.897 247.617 608.097 226.675 546.383C223.821 546.955 221.196 547.382 218.318 547.823C204.875 540.556 197.244 546.412 183.824 550.167C168.214 554.532 147.061 569.633 131.657 557.917C127.811 554.991 125.294 550.655 124.664 545.863C124.001 540.71 125.625 535.769 128.78 531.695C136.789 521.352 152.879 521.68 164.716 520.836C170.108 520.414 175.489 519.852 180.851 519.144C188.076 518.201 198.752 517.071 204.201 512.284C205.496 511.145 207.749 508.168 208.882 506.691C211.535 505.983 214.358 505.097 217.01 504.319C215.758 498.341 214.954 486.414 214.664 480.15C212.145 425.755 226.986 374.654 256.556 329.368L250.645 324.01C250.465 323.179 250.28 322.35 250.089 321.522C248.399 314.188 248.109 314.782 243.114 309.591C229.556 295.499 192.892 285.701 188.925 265.987C187.892 261.01 188.899 255.826 191.721 251.598C194.489 247.477 198.779 244.795 203.728 244.034C220.044 241.523 230.166 256.877 240.06 267.024C247.124 274.178 254.166 281.758 262.333 287.678C266.743 290.875 270.502 291.656 275.721 290.66L276.353 290.535C278.622 292.061 281.09 293.917 283.336 295.527C325.066 251.319 384.388 221.916 445.226 217.857C445.26 214.698 445.428 212.816 445.809 209.669C452.998 201.199 452.827 198.147 452.143 187.12C451.675 180.291 450.983 173.478 450.069 166.695C447.605 149.392 440.573 124.171 464.574 118.702Z" fill="#FEFEFE"/>
<path d="M549.099 520.527C557.279 520.105 584.672 525.182 593.944 526.889C614.035 530.583 636.474 533.514 656.311 537.588C646.069 565.484 632.635 586.756 612.568 608.393C600.919 620.691 589.693 629.495 575.696 638.774C567.061 616.194 556.557 593.826 547.749 571.265C544.304 562.446 540.347 553.833 537.024 544.935C532.683 533.303 537.244 524.09 549.099 520.527Z" fill="#326CE6"/>
<path d="M295.211 363.724C319.824 387.225 347.136 408.896 371.588 432.657C374.778 435.757 376.604 439.588 376.937 444.023C377.754 454.893 369.063 460.772 359.698 463.22C349.771 466.052 340.095 468.855 330.319 471.659C309.481 477.684 287.557 484.388 266.681 489.925C266.424 481.795 265.519 474.149 265.701 465.864C266.549 427.36 276.073 396.65 295.211 363.724Z" fill="#326CE6"/>
<path d="M441.354 269.778L441.998 269.89C442.59 271.652 439.797 313.242 439.542 317.661L437.767 350.079C437.089 363.054 438.964 384.403 422.334 387.416C419.286 387.954 416.15 387.637 413.272 386.499C408.147 384.443 398.605 377.196 393.796 373.784L363.908 352.536L325.628 325.447C360.02 293.23 394.702 276.51 441.354 269.778Z" fill="#326CE6"/>
<path d="M637.58 364.199C639.516 365.189 645.769 377.949 647.072 380.575C664.135 414.97 670.163 451.571 666.999 489.625C646.58 483.408 625.304 477.562 604.74 471.645C593.968 468.058 567.511 463.121 560.822 455.868C557.79 452.534 556.229 448.115 556.496 443.613C557.082 434.562 564.985 429.317 571.116 423.631C575.827 419.262 580.754 415.008 585.549 410.719L637.58 364.199Z" fill="#326CE6"/>
<path d="M465.493 561.808C478.285 561.279 482.761 572.081 488.025 581.481C491.096 586.962 494.124 592.48 497.166 597.98L531.314 659.802C513.225 666.543 488.954 670.013 469.758 670.351C444.821 670.702 426.03 667.055 402.504 659.783C406.704 652.924 411.508 643.669 415.483 636.491L438.906 594.13C443.142 586.423 447.372 578.373 451.871 570.834C455.398 564.921 459.104 563.201 465.493 561.808Z" fill="#326CE6"/>
<path d="M377.091 521.061C380.721 520.559 383.639 520.578 387.107 521.891C391.402 523.485 394.874 526.739 396.743 530.926C398.085 533.964 398.594 537.846 397.73 541.034C394.834 551.714 389.342 563.304 385.147 573.623C376.35 595.265 367.07 616.734 358.408 638.408C346.276 630.672 336.732 622.725 326.358 612.912C303.837 591.341 289.178 566.595 277.911 537.832C310.066 531.952 344.793 526.106 377.091 521.061Z" fill="#326CE6"/>
<path d="M491.475 269.574C500.269 271.338 506.963 271.939 516.197 274.358C551.864 283.699 580.772 300.286 607.308 325.555C595.172 333.809 582.675 342.974 570.647 351.498C556.5 361.199 542.724 371.594 528.586 381.322C524.513 384.123 519.638 387.215 514.552 387.355C510.01 387.438 505.627 385.709 502.36 382.55C500.208 380.495 498.254 377.433 497.869 374.509C496.318 362.852 495.764 349.351 495.211 337.544C494.161 315.026 492.225 292.004 491.475 269.574Z" fill="#326CE6"/>
<path d="M451.13 437.394L482.475 437.398L501.61 461.307L494.752 491.369C490.041 494.037 482.391 497.455 477.329 499.912L466.754 504.947C457.468 500.39 448.161 495.884 438.828 491.425L431.925 461.26L451.13 437.394Z" fill="#326CE6"/>
</svg>
