<svg width="215" height="220" xmlns="http://www.w3.org/2000/svg" xmlns:xlink="http://www.w3.org/1999/xlink" xml:space="preserve" overflow="hidden"><defs><linearGradient x1="466" y1="646" x2="254" y2="646" gradientUnits="userSpaceOnUse" spreadMethod="reflect" id="fill0"><stop offset="0" stop-color="#80E5FF" stop-opacity="1"/><stop offset="0.5" stop-color="#B3EDFF" stop-opacity="1"/><stop offset="1" stop-color="#DAF5FF" stop-opacity="1"/></linearGradient></defs><g transform="translate(-252 -536)"><g><path d="M357.415 590.839 357.415 548.816 348.038 558.193 344.383 554.539 358.173 540.75C359.173 539.75 360.828 539.75 361.827 540.75L375.617 554.539 371.963 558.193 362.586 548.816 362.586 590.839 357.415 590.839ZM357.415 701.153 357.415 743.175 348.038 733.799 344.383 737.453 358.173 751.242C358.69 751.759 359.345 752.001 360 752.001 360.655 752.001 361.31 751.759 361.827 751.242L375.617 737.453 371.963 733.799 362.586 743.175 362.586 701.153 357.415 701.153ZM268.54 661.612 272.194 657.958 262.817 648.582 297.946 648.582 297.946 643.41 262.817 643.41 272.194 634.034 268.54 630.38 254.75 644.169C253.75 645.169 253.75 646.823 254.75 647.823L268.54 661.612ZM451.461 661.612 465.251 647.823C466.25 646.823 466.25 645.169 465.251 644.169L451.461 630.38 447.807 634.034 457.184 643.41 422.054 643.41 422.054 648.582 457.184 648.582 447.807 657.958 451.461 661.612ZM408.264 669.265 311.736 669.265C310.323 669.265 309.15 668.093 309.15 666.68L309.15 625.312C309.15 623.899 310.323 622.727 311.736 622.727L408.264 622.727C409.678 622.727 410.85 623.899 410.85 625.312L410.85 666.68C410.85 668.093 409.678 669.265 408.264 669.265ZM405.679 627.898 314.322 627.898 314.322 664.094 405.679 664.094 405.679 627.898ZM394.475 643.41 353.105 643.41 353.105 648.582 394.475 648.582 394.475 643.41ZM424.398 619.9C438.361 599.044 440.395 584.841 430.776 575.223 421.261 565.708 406.541 567.846 385.787 581.807L388.683 586.116C413.16 569.673 422.364 574.12 427.156 578.911 431.914 583.669 436.396 592.838 420.158 617.073L424.467 619.934ZM295.533 672.126C281.605 692.948 279.606 707.151 289.224 716.769 293.189 720.733 297.912 722.733 303.566 722.733 311.633 722.733 321.596 718.665 333.834 710.46L330.973 706.151C306.772 722.354 297.636 717.872 292.878 713.115 288.121 708.358 283.639 699.222 299.842 675.022L295.533 672.161ZM331.042 585.841 333.903 581.531C313.356 567.777 298.739 565.708 289.224 575.223 279.572 584.875 281.674 599.147 295.809 620.176L300.084 617.28C283.639 592.838 288.086 583.634 292.878 578.877 297.671 574.085 306.806 569.604 331.042 585.841ZM430.776 716.769C440.291 707.254 438.223 692.638 424.467 672.092L420.158 674.953C436.361 699.188 431.879 708.323 427.122 713.115 422.364 717.872 413.229 722.319 389.028 706.117L386.166 710.426C398.439 718.631 408.402 722.733 416.504 722.733 422.158 722.733 426.881 720.733 430.811 716.803ZM325.526 649.443C327.422 649.443 328.973 647.892 328.973 645.996 328.973 644.1 327.422 642.549 325.526 642.549 323.63 642.549 322.078 644.1 322.078 645.996 322.078 647.892 323.63 649.443 325.526 649.443ZM339.316 649.443C341.212 649.443 342.763 647.892 342.763 645.996 342.763 644.1 341.212 642.549 339.316 642.549 337.419 642.549 335.868 644.1 335.868 645.996 335.868 647.892 337.419 649.443 339.316 649.443Z" fill="url(#fill0)" fill-rule="evenodd"/></g></g></svg>