<svg width="1022" height="1150" xmlns="http://www.w3.org/2000/svg" xmlns:xlink="http://www.w3.org/1999/xlink" xml:space="preserve" overflow="hidden"><g transform="translate(-1943 -1347)"><g><path d="M2923.1 1609.18 2493.23 1361.35C2469.24 1347.55 2439.76 1347.55 2415.77 1361.35L1985.9 1609.18C1961.84 1622.98 1947 1648.51 1947 1676.17L1947 2171.83C1947 2199.49 1961.91 2225.09 1985.9 2238.82L2415.77 2486.65C2439.76 2500.45 2469.24 2500.45 2493.23 2486.65L2923.1 2238.82C2947.16 2225.02 2962 2199.49 2962 2171.83L2962 1676.17C2962 1648.51 2947.16 1622.91 2923.1 1609.18Z" fill="#0D964D" fill-rule="evenodd" fill-opacity="1"/><path d="M2597.8 2017.27C2599.03 2014.59 2599.45 2011.57 2598.9 2008.61L2598.9 1722.9C2598.9 1706.67 2602.6 1691.28 2615.3 1679.52 2627.99 1667.76 2646.31 1664.94 2663.87 1666.32 2671.9 1666.73 2679.72 1668.66 2687.07 1671.89 2704.43 1679.93 2712.04 1694.23 2714.44 1712.45 2715.95 1727.64 2716.37 1742.9 2715.68 1758.1L2715.68 2104.51C2715.68 2114.62 2714.72 2124.66 2713 2134.63 2708.2 2159.24 2687.48 2177.59 2662.5 2179.31 2643.08 2180.41 2623.67 2179.59 2605.21 2170.99 2591.07 2164.6 2578.59 2155.18 2568.5 2143.42 2552.65 2124.31 2536.46 2105.41 2520.47 2086.5 2504.48 2067.6 2486.03 2045.05 2468.94 2024.29 2451.85 2003.52 2431.27 1978.78 2412.61 1956.16L2364.51 1897.38 2315.93 1838.26C2314.97 1837.09 2314.14 1835.37 2311.88 1835.64 2310.92 1838.19 2310.65 1841.01 2311.19 1843.76L2311.19 2122.46C2311.19 2138.41 2308.11 2153.87 2295.28 2165.42 2286.56 2173.05 2275.65 2177.8 2264.06 2179.04 2247.11 2180.96 2230.02 2180.96 2215.48 2169.82 2200.93 2158.69 2194 2147.07 2194 2129.4 2194.27 1996.38 2194.27 1863.49 2194 1730.87 2194 1714.79 2197.09 1699.59 2209.51 1687.91 2232.08 1666.53 2273.18 1660.61 2301.11 1673.68 2321.01 1682.96 2334.11 1698.7 2347.35 1714.92 2367.66 1740.09 2388.32 1764.97 2408.76 1790 2429.21 1815.02 2446.43 1836.13 2465.3 1859.02L2522.46 1927.49 2588.6 2007.65C2591.55 2011.02 2594.51 2014.11 2597.66 2017.55Z" fill="#FFFFFF" fill-rule="evenodd" fill-opacity="1"/></g></g></svg>