<svg width="1131" height="235" viewBox="0 0 1131 235" fill="none" xmlns="http://www.w3.org/2000/svg">
<path d="M94.4616 142.518L117.335 87.4041C121.638 77.0691 125.592 66.8466 130.723 56.8983C144.123 30.9221 176.619 22.6615 202.014 35.8236C210.285 40.1105 214.766 44.4867 221.009 51.5313C221.433 51.0772 221.865 50.6308 222.306 50.1923C233.677 38.8643 254.372 29.2044 270.523 29.5588C283.684 29.8475 298.453 33.2247 308.728 42.0093C312.148 44.9323 314.564 48.2292 317.732 51.4007C348.268 17.0075 412.03 23.57 423.932 71.7717C426.358 81.5964 425.715 94.2456 425.69 104.493C425.634 127.245 425.663 149.973 425.712 172.723C425.813 188.136 419.045 202.957 401.284 202.502C375.436 201.84 377.654 176.702 377.701 158.124L377.826 117.172C377.854 108.586 378.392 100.006 377.067 91.5199C373.898 71.2134 349.883 65.9777 335.729 78.8597C330.283 83.8168 329.154 91.1123 329.091 98.0547L329.086 149.891C329.116 157.243 329.626 172.391 328.834 179.209C328.375 183.105 327.238 186.891 325.473 190.396C315.859 209.247 286.406 205.654 282.231 184.649C280.203 174.442 281.033 163.63 281.041 153.234L281.056 111.24C281.088 104.216 281.724 94.4453 279.648 87.9999C277.797 82.0791 273.647 77.1474 268.126 74.3087C262.12 71.2708 254.949 71.2162 248.593 73.2297C229.942 79.1378 231.903 97.8164 231.903 113.673L231.942 158.633C231.957 169.203 233.405 181.209 228.56 190.729C225.961 195.889 221.408 199.8 215.911 201.594C210.566 203.28 201.7 202.811 196.749 200.058C181.977 191.847 184.52 174.768 184.383 160.551C184.35 157.14 184.39 153.896 184.395 150.571L184.509 98.266C184.52 91.6656 185.007 82.6815 183.591 76.3779C183.235 75.0887 182.203 73.6533 180.968 73.0923C171.466 68.7735 169.832 80.9648 166.942 86.682C163.776 92.9404 161.228 98.9759 158.478 105.202L138.602 149.459C134.252 159.164 129.976 168.974 125.372 178.558C120.946 187.775 114.854 197.932 104.464 201.171C97.5408 203.309 86.9421 203.11 80.4735 199.532C67.8371 192.543 61.0344 173.631 55.4095 161.109L37.5706 121.215L21.1441 84.7022C11.8125 64.2997 -3.03494 39.8256 28.3307 29.8441C51.5055 27.8583 55.1184 48.0834 62.3359 65.6633L83.6614 117.174C86.7102 124.471 90.9628 135.946 94.4616 142.518Z" fill="#FEFEFE"/>
<path d="M734.193 33.3353C735.53 33.0229 738.247 33.1563 739.743 33.1019C782.242 31.5541 810.73 54.1482 810.725 98.07C810.725 128.426 810.946 160.277 810.493 190.747C810.46 193.108 808.858 195.999 807.213 197.664C804.827 200.043 801.597 201.378 798.223 201.372C784.699 201.353 787.344 183.483 787.416 174.413C762.699 208.436 707.913 212.912 679.789 181.163C667.629 163.979 666.216 139.109 678.442 121.618C698.984 92.2337 757.265 94.4474 787.548 104.937C787.41 89.7739 785.571 74.9474 772.986 64.7795C758.049 52.7086 735.243 53.8937 717.312 57.1729C711.9 58.162 705.058 62.8051 699.244 63.1885C696.262 63.3662 693.832 62.6865 691.59 60.795C689.309 58.8372 687.907 56.0514 687.686 53.0555C686.946 42.6673 699.487 40.2178 707.256 37.5201C716.003 34.4856 725.004 33.874 734.193 33.3353ZM745.608 182.07C761.18 177.811 773.483 172.915 782.291 158.074C788.736 147.22 787.836 135.175 787.565 123.026C774.417 119.666 748.866 114.423 735.502 116.626C729.152 117.085 724.115 117.591 717.997 119.673C702.756 124.855 693.236 136.294 694.489 152.82C696.179 175.166 720.062 184.792 739.848 182.853C741.792 182.663 743.725 182.662 745.608 182.07Z" fill="#FEFEFE"/>
<path d="M1002.46 32.8149C1002.66 32.7861 1002.78 32.7671 1002.98 32.7616C1021.25 32.1373 1038.98 39.034 1052.01 51.8384C1067.83 67.4095 1075.94 89.9464 1076.44 111.909C1076.57 117.564 1073.62 126.167 1066.99 126.524C1055.12 127.163 1042.94 126.868 1031.02 126.864L952.196 126.825C953.041 138.793 957.26 150.278 964.362 159.951C972.595 170.972 984.887 178.263 998.511 180.208C1017.44 182.876 1031.62 177.897 1046.44 166.755C1050.65 162.673 1054.98 159.219 1061.28 159.971C1071.71 161.219 1071.28 173.108 1064.9 179.027C1011.39 228.664 929.511 195.553 928.092 121.203C927.209 74.8975 953.168 34.0924 1002.46 32.8149ZM952.114 108.222L1005.86 108.078L1052.75 108.056C1050.34 90.055 1045.37 74.3111 1030.41 62.3758C1022.71 56.2288 1009.95 52.3437 1000.21 53.6817C1000.1 53.6957 1000 53.7105 999.902 53.7261C970.585 57.3448 954.996 80.0576 952.114 108.222Z" fill="#FEFEFE"/>
<path d="M445.545 33.1307C458.229 32.2094 460.144 44.7012 463.373 54.1618L473.092 82.9971L487.096 124.396C490.652 134.608 496.823 151.566 499.379 161.536C502.948 153.559 507.019 139.853 510.038 130.995L531.447 67.759C534.286 59.438 536.988 51.0657 539.979 42.7967C543.773 32.3099 550.674 31.6096 560.36 34.874C562.221 36.5765 563.712 38.6454 564.734 40.9505C567.44 47.1449 569.913 55.309 572.084 61.7627C576.093 73.4829 580.008 85.2367 583.829 97.022C590.605 117.483 599.457 141.098 605.443 161.418C609.425 151.28 613.251 139.128 616.808 128.718L635.561 73.8392C638.709 64.6036 645.39 41.2821 651.017 34.8477C654.22 33.4036 660.317 32.4799 663.442 33.841C676.441 39.5023 663.724 64.9032 660.659 73.1811C659.985 76.4364 655.551 88.1433 654.176 91.9866L640.774 129.757L626.576 170.421C623.489 179.308 619.359 197.925 609.32 200.709C605.852 201.656 602.146 201.171 599.037 199.366C592.565 195.579 588.843 180.258 586.392 173.038L573.945 136.214L560.658 97.1467C557.969 89.2792 554.877 81.1822 552.806 73.1668C549.801 79.4395 546.281 91.9237 543.704 99.3163L521.073 165.525C517.956 174.77 514.652 185.623 510.565 194.48C506.062 204.239 490.509 202.89 486.406 192.652C483.413 185.185 480.82 177.451 478.121 169.707L463.738 128.747L445.92 78.1591C442.826 69.3654 439.698 60.6368 436.831 51.7605C433.744 42.2019 435.065 36.0809 445.545 33.1307Z" fill="#FEFEFE"/>
<path d="M847.734 33.1711C853.201 32.673 855.106 33.2809 859.679 35.9231C865.781 44.7461 863.351 61.0921 863.108 71.5701C872.109 54.3327 885.207 41.5156 904.021 35.3957C910.295 33.4993 918.65 31.7942 924.752 35.0054C932.637 39.1506 930.577 48.4078 927.148 54.7513C917.523 60.7231 906.28 59.04 894.573 66.49C878.123 76.9574 870.955 89.7257 866.184 107.985C861.286 122.305 863.34 156.851 863.389 173.376C863.412 179.623 864.08 186.701 862.285 192.728C861.407 195.7 859.237 197.806 856.542 199.242C853.726 200.744 850.766 201.029 847.701 200.079C844.686 199.143 841.886 197.099 840.417 194.252C839.026 191.543 839.103 187.127 838.993 184.128C838.446 169.328 838.087 45.5292 839.766 40.5069C841.052 36.6471 844.305 34.8242 847.734 33.1711Z" fill="#FEFEFE"/>
<path d="M1096.2 33.4856C1107.09 32.5425 1116.76 40.4309 1118.01 51.2836C1119.26 62.1361 1111.64 72.0127 1100.81 73.5673C1093.54 74.6121 1086.26 71.6244 1081.83 65.7659C1077.4 59.9075 1076.5 52.1041 1079.48 45.3921C1082.47 38.6801 1088.87 34.1198 1096.2 33.4856ZM1101.33 69.0653C1110.04 67.1423 1115.56 58.5664 1113.7 49.8581C1111.84 41.1496 1103.3 35.5685 1094.57 37.3578C1085.74 39.1666 1080.08 47.8135 1081.96 56.6175C1083.84 65.4211 1092.54 71.0098 1101.33 69.0653Z" fill="#FEFEFE"/>
<path d="M1090.62 43.1405C1094.45 43.007 1098.14 43.1172 1101.96 43.211C1104.46 44.6426 1106.13 45.6486 1107.06 48.4501C1107.14 49.8577 1105.78 51.9502 1104.86 52.9451C1101.23 56.8969 1107.98 59.2745 1105.56 62.7918C1104.65 63.0064 1103.71 62.7151 1102.79 62.5115C1101.43 61.3145 1098.28 56.6779 1096.76 56.3105C1096.28 56.1958 1093.05 62.4376 1091.91 63.1316L1091.21 62.8034C1089.85 59.9966 1089.9 46.2495 1090.62 43.1405Z" fill="#FEFEFE"/>
</svg>
